{
  "accessors": [
    {
      "bufferView": 2,
      "componentType": 5126,
      "count": 10153,
      "max": [
        0.67524200677871704,
        1,
        0.92284697294235229
      ],
      "min": [
        -0.67524200677871704,
        -0.51375597715377808,
        -0.91097402572631836
      ],
      "type": "VEC3"
    },
    {
      "bufferView": 2,
      "byteOffset": 121836,
      "componentType": 5126,
      "count": 10153,
      "max": [
        0.99999874830245972,
        0.99982577562332153,
        0.99999910593032837
      ],
      "min": [
        -0.99999874830245972,
        -0.99954986572265625,
        -0.99990421533584595
      ],
      "type": "VEC3"
    },
    {
      "bufferView": 3,
      "componentType": 5126,
      "count": 10153,
      "max": [
        0.99996793270111084,
        0.99920040369033813,
        0.99988746643066406,
        1
      ],
      "min": [
        -0.99989497661590576,
        -0.99991542100906372,
        -0.99938827753067017,
        -1
      ],
      "type": "VEC4"
    },
    {
      "bufferView": 1,
      "componentType": 5126,
      "count": 10153,
      "max": [
        0.98723798990249634,
        0.98653298616409302
      ],
      "min": [
        0.0030119998846203089,
        0.0030119998846203089
      ],
      "type": "VEC2"
    },
    {
      "bufferView": 0,
      "componentType": 5125,
      "count": 57846,
      "max": [
        10152
      ],
      "min": [
        0
      ],
      "type": "SCALAR"
    },
    {
      "bufferView": 2,
      "byteOffset": 243672,
      "componentType": 5126,
      "count": 3135,
      "max": [
        0.58053499460220337,
        -0.13188299536705017,
        0.081839397549629211
      ],
      "min": [
        -0.58053499460220337,
        -1,
        -0.86584502458572388
      ],
      "type": "VEC3"
    },
    {
      "bufferView": 2,
      "byteOffset": 281292,
      "componentType": 5126,
      "count": 3135,
      "max": [
        0.99985945224761963,
        0.99853348731994629,
        0.99792587757110596
      ],
      "min": [
        -0.99985945224761963,
        -0.99635308980941772,
        -0.99995976686477661
      ],
      "type": "VEC3"
    },
    {
      "bufferView": 3,
      "byteOffset": 162448,
      "componentType": 5126,
      "count": 3135,
      "max": [
        0.99982345104217529,
        0.90962308645248413,
        0.99963563680648804,
        1
      ],
      "min": [
        -0.99998199939727783,
        -0.90325033664703369,
        -0.99991428852081299,
        -1
      ],
      "type": "VEC4"
    },
    {
      "bufferView": 1,
      "byteOffset": 81224,
      "componentType": 5126,
      "count": 3135,
      "max": [
        0.98557597398757935,
        0.98688602447509766
      ],
      "min": [
        0.045180998742580414,
        0.0030119998846203089
      ],
      "type": "VEC2"
    },
    {
      "bufferView": 0,
      "byteOffset": 231384,
      "componentType": 5125,
      "count": 17226,
      "max": [
        3134
      ],
      "min": [
        0
      ],
      "type": "SCALAR"
    },
    {
      "bufferView": 2,
      "byteOffset": 318912,
      "componentType": 5126,
      "count": 3341,
      "max": [
        0.33643600344657898,
        -0.51087802648544312,
        -0.36002200841903687
      ],
      "min": [
        -0.33643600344657898,
        -0.75158202648162842,
        -0.8931090235710144
      ],
      "type": "VEC3"
    },
    {
      "bufferView": 2,
      "byteOffset": 359004,
      "componentType": 5126,
      "count": 3341,
      "max": [
        0.9997856616973877,
        0.99831324815750122,
        0.99857676029205322
      ],
      "min": [
        -0.9997856616973877,
        -0.99571049213409424,
        -0.99969154596328735
      ],
      "type": "VEC3"
    },
    {
      "bufferView": 3,
      "byteOffset": 212608,
      "componentType": 5126,
      "count": 3341,
      "max": [
        0.99983364343643188,
        0.99864792823791504,
        0.99989008903503418,
        1
      ],
      "min": [
        -0.99975407123565674,
        -0.99823617935180664,
        -0.99997580051422119,
        -1
      ],
      "type": "VEC4"
    },
    {
      "bufferView": 1,
      "byteOffset": 106304,
      "componentType": 5126,
      "count": 3341,
      "max": [
        0.98781502246856689,
        0.98789697885513306
      ],
      "min": [
        0.0030119998846203089,
        0.0030119998846203089
      ],
      "type": "VEC2"
    },
    {
      "bufferView": 0,
      "byteOffset": 300288,
      "componentType": 5125,
      "count": 16428,
      "max": [
        3340
      ],
      "min": [
        0
      ],
      "type": "SCALAR"
    },
    {
      "bufferView": 2,
      "byteOffset": 399096,
      "componentType": 5126,
      "count": 3070,
      "max": [
        0.34468498826026917,
        -0.38409999012947083,
        -0.34830498695373535
      ],
      "min": [
        -0.34531301259994507,
        -0.60291999578475952,
        -0.92284697294235229
      ],
      "type": "VEC3"
    },
    {
      "bufferView": 2,
      "byteOffset": 435936,
      "componentType": 5126,
      "count": 3070,
      "max": [
        0.99999946355819702,
        0.99874025583267212,
        0.99832433462142944
      ],
      "min": [
        -0.99944090843200684,
        -0.9990573525428772,
        -0.99944436550140381
      ],
      "type": "VEC3"
    },
    {
      "bufferView": 3,
      "byteOffset": 266064,
      "componentType": 5126,
      "count": 3070,
      "max": [
        0.9999687671661377,
        0.9952385425567627,
        0.99983274936676025,
        1
      ],
      "min": [
        -0.99917298555374146,
        -0.99896180629730225,
        -0.99910140037536621,
        -1
      ],
      "type": "VEC4"
    },
    {
      "bufferView": 1,
      "byteOffset": 133032,
      "componentType": 5126,
      "count": 3070,
      "max": [
        0.98781901597976685,
        0.98585498332977295
      ],
      "min": [
        0.0030119998846203089,
        0.0030119998846203089
      ],
      "type": "VEC2"
    },
    {
      "bufferView": 0,
      "byteOffset": 366000,
      "componentType": 5125,
      "count": 15264,
      "max": [
        3069
      ],
      "min": [
        0
      ],
      "type": "SCALAR"
    }
  ],
  "asset": {
    "extras": {
      "author": "Sergey Egelsky (https://sketchfab.com/egelsky)",
      "license": "CC-BY-4.0 (http://creativecommons.org/licenses/by/4.0/)",
      "source": "https://sketchfab.com/3d-models/human-skull-b0251e48e906418ebae34b7f811ca065",
      "title": "Human Skull"
    },
    "generator": "Sketchfab-4.69.0",
    "version": "2.0"
  },
  "bufferViews": [
    {
      "buffer": 0,
      "byteLength": 427056,
      "byteOffset": 0,
      "name": "floatBufferViews",
      "target": 34963
    },
    {
      "buffer": 0,
      "byteLength": 157592,
      "byteOffset": 427056,
      "byteStride": 8,
      "name": "floatBufferViews",
      "target": 34962
    },
    {
      "buffer": 0,
      "byteLength": 472776,
      "byteOffset": 584648,
      "byteStride": 12,
      "name": "floatBufferViews",
      "target": 34962
    },
    {
      "buffer": 0,
      "byteLength": 315184,
      "byteOffset": 1057424,
      "byteStride": 16,
      "name": "floatBufferViews",
      "target": 34962
    }
  ],
  "buffers": [
    {
      "byteLength": 1372608,
      "uri": "scene.bin"
    }
  ],
  "images": [
    {
      "uri": "textures/DefaultMaterial_metallicRoughness.png"
    },
    {
      "uri": "textures/DefaultMaterial_baseColor.jpeg"
    },
    {
      "uri": "textures/DefaultMaterial_normal.png"
    }
  ],
  "materials": [
    {
      "doubleSided": true,
      "emissiveFactor": [
        0,
        0,
        0
      ],
      "name": "DefaultMaterial",
      "normalTexture": {
        "index": 2,
        "scale": 1,
        "texCoord": 0
      },
      "occlusionTexture": {
        "index": 0,
        "strength": 1,
        "texCoord": 0
      },
      "pbrMetallicRoughness": {
        "baseColorFactor": [
          1,
          1,
          1,
          1
        ],
        "baseColorTexture": {
          "index": 1,
          "texCoord": 0
        },
        "metallicFactor": 1,
        "metallicRoughnessTexture": {
          "index": 0,
          "texCoord": 0
        },
        "roughnessFactor": 1
      }
    }
  ],
  "meshes": [
    {
      "name": "defaultMaterial",
      "primitives": [
        {
          "attributes": {
            "NORMAL": 1,
            "POSITION": 0,
            "TANGENT": 2,
            "TEXCOORD_0": 3
          },
          "indices": 4,
          "material": 0,
          "mode": 4
        }
      ]
    },
    {
      "name": "defaultMaterial",
      "primitives": [
        {
          "attributes": {
            "NORMAL": 6,
            "POSITION": 5,
            "TANGENT": 7,
            "TEXCOORD_0": 8
          },
          "indices": 9,
          "material": 0,
          "mode": 4
        }
      ]
    },
    {
      "name": "defaultMaterial",
      "primitives": [
        {
          "attributes": {
            "NORMAL": 11,
            "POSITION": 10,
            "TANGENT": 12,
            "TEXCOORD_0": 13
          },
          "indices": 14,
          "material": 0,
          "mode": 4
        }
      ]
    },
    {
      "name": "defaultMaterial",
      "primitives": [
        {
          "attributes": {
            "NORMAL": 16,
            "POSITION": 15,
            "TANGENT": 17,
            "TEXCOORD_0": 18
          },
          "indices": 19,
          "material": 0,
          "mode": 4
        }
      ]
    }
  ],
  "nodes": [
    {
      "children": [
        1
      ],
      "name": "RootNode (gltf orientation matrix)",
      "rotation": [
        -0.70710678118654746,
        -0,
        -0,
        0.70710678118654757
      ]
    },
    {
      "children": [
        2
      ],
      "name": "RootNode (model correction matrix)"
    },
    {
      "children": [
        3,
        5,
        7,
        9
      ],
      "matrix": [
        1,
        0,
        0,
        0,
        0,
        -4.3711390063094768e-08,
        0.999999999999999,
        0,
        0,
        -0.999999999999999,
        -4.3711390063094768e-08,
        0,
        0,
        0,
        0,
        1
      ],
      "name": "Collada visual scene group"
    },
    {
      "children": [
        4
      ],
      "name": "g"
    },
    {
      "mesh": 0,
      "name": "defaultMaterial"
    },
    {
      "children": [
        6
      ],
      "name": "g"
    },
    {
      "mesh": 1,
      "name": "defaultMaterial"
    },
    {
      "children": [
        8
      ],
      "name": "g"
    },
    {
      "mesh": 2,
      "name": "defaultMaterial"
    },
    {
      "children": [
        10
      ],
      "name": "g"
    },
    {
      "mesh": 3,
      "name": "defaultMaterial"
    }
  ],
  "samplers": [
    {
      "magFilter": 9729,
      "minFilter": 9987,
      "wrapS": 10497,
      "wrapT": 10497
    }
  ],
  "scene": 0,
  "scenes": [
    {
      "name": "OSG_Scene",
      "nodes": [
        0
      ]
    }
  ],
  "textures": [
    {
      "sampler": 0,
      "source": 0
    },
    {
      "sampler": 0,
      "source": 1
    },
    {
      "sampler": 0,
      "source": 2
    }
  ]
}

